<?xml version="1.0" encoding="iso-8859-1"?>
<!-- Generator: Adobe Illustrator 19.0.0, SVG Export Plug-In . SVG Version: 6.00 Build 0)  -->
<svg version="1.1" id="Layer_1" xmlns="http://www.w3.org/2000/svg" xmlns:xlink="http://www.w3.org/1999/xlink" x="0px" y="0px"
	 viewBox="0 0 481.344 481.344" style="enable-background:new 0 0 481.344 481.344;" xml:space="preserve">
<path style="fill:#FCB641;" d="M161.587,272.624V56c0-26.512-21.488-48-48-48l0,0c-26.512,0-48,21.488-48,48v218.96
	c-36.064,19.64-59.416,59.688-54.52,104.632c5.272,48.432,44.488,87.72,92.912,93.064c63.696,7.04,117.608-42.648,117.608-104.92
	C221.587,325.784,197.043,289.648,161.587,272.624z"/>
<path style="fill:#4D4D4D;" d="M116.195,481.344c-4.336,0-8.704-0.24-13.096-0.728c-52.24-5.768-94.296-47.88-99.984-100.152
	c-4.864-44.616,16.424-87.312,54.472-110.144V56c0-30.872,25.12-56,56-56s56,25.128,56,56v211.72
	c36.616,19.664,60,58.384,60,100.032c0,32.256-13.792,63.104-37.832,84.632C170.643,471.288,144.203,481.344,116.195,481.344z
	 M113.587,16c-22.056,0-40,17.944-40,40v218.96c0,2.928-1.6,5.624-4.176,7.024c-34.936,19.032-54.72,57.008-50.392,96.752
	c4.888,44.864,40.984,81.032,85.84,85.976c28.208,3.144,55.288-5.496,76.224-24.24c20.656-18.504,32.504-45.008,32.504-72.72
	c0-37.224-21.768-71.736-55.464-87.912c-2.768-1.336-4.536-4.136-4.536-7.216V56C153.587,33.944,135.643,16,113.587,16z"/>
<g>
	<path style="fill:#E66032;" d="M137.587,302.744V216c0-13.256-10.744-24-24-24l0,0c-13.256,0-24,10.744-24,24v88.024
		c-25.24,9.976-43.336,34.112-44.376,62.64c-1.392,38.312,29.776,71.656,68.104,72.728c39.672,1.112,72.184-30.72,72.184-70.144
		C185.499,338.288,165.419,312.056,137.587,302.744z"/>
	<path style="fill:#E66032;" d="M129.595,183.504c-2.68,0-5.296-1.344-6.808-3.792l-8.712-14.08l-9.888,14.4
		c-2.504,3.648-7.472,4.576-11.128,2.064c-3.64-2.496-4.56-7.488-2.064-11.128l16.832-24.496c1.528-2.224,3.984-3.544,6.784-3.472
		c2.696,0.072,5.184,1.496,6.608,3.792l15.168,24.496c2.328,3.76,1.168,8.688-2.592,11.016
		C132.483,183.12,131.035,183.504,129.595,183.504z"/>
	<path style="fill:#E66032;" d="M129.595,135.504c-2.68,0-5.296-1.344-6.808-3.792l-8.712-14.08l-9.888,14.4
		c-2.504,3.648-7.472,4.576-11.128,2.064c-3.64-2.496-4.56-7.488-2.064-11.128l16.832-24.496c1.528-2.224,3.984-3.56,6.784-3.472
		c2.696,0.072,5.184,1.496,6.608,3.792l15.168,24.496c2.328,3.76,1.168,8.688-2.592,11.016
		C132.483,135.12,131.035,135.504,129.595,135.504z"/>
	<path style="fill:#E66032;" d="M129.595,87.504c-2.68,0-5.296-1.344-6.808-3.792l-8.712-14.08l-9.888,14.4
		c-2.504,3.648-7.472,4.568-11.128,2.064c-3.64-2.496-4.56-7.488-2.064-11.128l16.832-24.496c1.528-2.224,3.984-3.4,6.784-3.472
		c2.696,0.072,5.184,1.496,6.608,3.792l15.168,24.496c2.328,3.76,1.168,8.688-2.592,11.016
		C132.483,87.12,131.035,87.504,129.595,87.504z"/>
</g>
<ellipse style="fill:#FCB641;" cx="339.827" cy="170.744" rx="131.08" ry="133.424"/>
<g>
	<path style="fill:#4D4D4D;" d="M478.915,170.752c0-77.984-62.392-141.432-139.08-141.432s-139.08,63.448-139.08,141.432
		c0,53.68,29.568,100.456,73.008,124.408c-0.04,0.288-0.176,0.544-0.176,0.84v24c0,4.424,3.584,8,8,8s8-3.576,8-8v-17.528
		c15.608,6.176,32.512,9.696,50.24,9.696c7.416,0,14.648-0.768,21.76-1.904V360c0,4.424,3.584,8,8,8s8-3.576,8-8v-53.264
		c24.872-7.152,46.872-21.152,64-39.904V304c0,4.424,3.584,8,8,8s8-3.576,8-8v-56c0-0.624-0.224-1.176-0.352-1.76
		C470.883,224.368,478.915,198.52,478.915,170.752z M339.827,296.168c-67.864,0-123.08-56.264-123.08-125.424
		c0-69.168,55.216-125.432,123.08-125.432s123.08,56.264,123.08,125.432C462.915,239.904,407.699,296.168,339.827,296.168z"/>
	<path style="fill:#4D4D4D;" d="M449.587,328c-4.416,0-8,3.576-8,8v16c0,4.424,3.584,8,8,8s8-3.576,8-8v-16
		C457.587,331.576,454.003,328,449.587,328z"/>
	<path style="fill:#4D4D4D;" d="M369.587,384c-4.416,0-8,3.576-8,8v16c0,4.424,3.584,8,8,8s8-3.576,8-8v-16
		C377.587,387.576,374.003,384,369.587,384z"/>
	<path style="fill:#4D4D4D;" d="M281.587,344c-4.416,0-8,3.576-8,8v16c0,4.424,3.584,8,8,8s8-3.576,8-8v-16
		C289.587,347.576,286.003,344,281.587,344z"/>
</g>
<g>
</g>
<g>
</g>
<g>
</g>
<g>
</g>
<g>
</g>
<g>
</g>
<g>
</g>
<g>
</g>
<g>
</g>
<g>
</g>
<g>
</g>
<g>
</g>
<g>
</g>
<g>
</g>
<g>
</g>
</svg>
