<?xml version="1.0" encoding="iso-8859-1"?>
<!-- Generator: Adobe Illustrator 19.0.0, SVG Export Plug-In . SVG Version: 6.00 Build 0)  -->
<svg version="1.1" id="Layer_1" xmlns="http://www.w3.org/2000/svg" xmlns:xlink="http://www.w3.org/1999/xlink" x="0px" y="0px"
	 viewBox="0 0 480 480" style="enable-background:new 0 0 480 480;" xml:space="preserve">
<path style="fill:#92C7D3;" d="M420,359.52c-1.08,0-41.224,0-41.224,0c0.72-7.888,1.2-9.632,1.208-14.256
	c0.12-41.248-27.408-77.904-67.696-86.784c-22.96-5.056-44.88-1.624-63.016,8.16c-22.12-32.928-58.784-55.296-100.792-57.864
	c-5.4-0.736-10.872-1.256-16.48-1.256c-68.48,0-124,57.248-124,127.872c0,36.8,15.16,69.88,39.288,93.208
	c21.336,23.672,50.96,38.96,86.04,41.504c0,0,285.584,1.416,286.672,1.416c28.72,0,52-25.072,52-56S448.72,359.52,420,359.52z"/>
<path style="fill:#4D4D4D;" d="M420,479.52c-1.096,0-275.048-1.36-286.712-1.416c-36.68-2.648-68.28-17.896-91.944-44.144
	C14.824,408.328,0,373.184,0,335.392c0-74.92,59.216-135.872,132-135.872c5.368,0,10.952,0.424,17.568,1.336
	c40.016,2.424,77.936,23.08,102.288,55.6c19.12-8.552,40.456-10.576,62.152-5.792c43,9.472,74.12,49.264,73.976,94.616
	c-0.008,2.44-0.128,4.16-0.336,6.232H420c33.088,0,60,28.712,60,64S453.088,479.52,420,479.52z M133.944,463.52
	c3.576,0,284.072,0.688,286.064,0.696c24.248,0,43.992-21.88,43.992-48.344s-19.744-48.352-44-48.352h-49.992l0.8-8.728
	c0.264-2.92,0.496-5.016,0.696-6.736c0.288-2.616,0.48-4.192,0.488-6.816c0.12-37.888-25.712-71.088-61.416-78.952
	c-20.344-4.48-40.216-1.92-57.496,7.392l-6.392,3.456l-4.048-6.032c-21.616-32.176-56.112-51.984-94.648-54.344
	c-6.48-0.864-11.368-1.24-15.992-1.24c-63.96,0-116,53.776-116,119.872c0,33.416,13.088,65.168,36.848,88.16
	c21.224,23.504,49.12,39.968,81.056,39.968C133.904,463.52,133.92,463.52,133.944,463.52z"/>
<path style="fill:#FEDCA4;" d="M358.688,11.544c9.936,16.632,15.76,36.016,15.76,56.808c0,61.328-49.712,111.04-111.04,111.04
	c-0.136,0-0.272-0.024-0.408-0.024c19.384,32.44,54.744,54.232,95.28,54.232c61.328,0,111.04-49.712,111.04-111.04
	C469.32,61.376,419.824,11.768,358.688,11.544z"/>
<path style="fill:#4D4D4D;" d="M358.28,241.608c-42.208,0-80.4-23.664-102.152-60.056l-7.232-14.032H263c0.008,0,0.024,0,0.032,0
	c57.208,0,103.416-44.288,103.416-101.096c0-18.48-5.056-35.736-14.624-51.736l-7.264-11.68l14.168,0.296
	c65.4,0.24,118.6,53.752,118.6,119.144C477.32,188.088,423.92,241.608,358.28,241.608z M277.624,186.544
	c19.448,24.68,48.72,39.064,80.656,39.064c56.816,0,103.04-46.224,103.04-103.04c0-51.968-38.832-95.184-89.008-102.072
	c6.656,15.072,10.136,31.376,10.136,47.848C382.448,129.176,336.584,179.496,277.624,186.544z"/>
<polygon style="fill:#FEDCA4;" points="82,152.12 96.512,181.528 128.952,186.24 105.48,209.128 111.024,241.44 82,226.184 
	52.976,241.44 58.52,209.128 35.048,186.24 67.488,181.528 "/>
<path style="fill:#4D4D4D;" d="M111.024,249.44c-1.272,0-2.552-0.304-3.72-0.92L82,235.224L56.696,248.52
	c-2.672,1.424-5.952,1.184-8.424-0.608c-2.464-1.792-3.696-4.824-3.176-7.824l4.832-28.176l-20.472-19.944
	c-2.176-2.128-2.96-5.304-2.024-8.192c0.944-2.896,3.448-5.008,6.464-5.448l28.28-4.112l12.648-25.632
	c2.688-5.472,11.656-5.472,14.344,0l12.648,25.632l28.28,4.112c3.016,0.44,5.512,2.544,6.464,5.448
	c0.936,2.888,0.16,6.072-2.024,8.192l-20.472,19.944l4.832,28.176c0.512,3-0.72,6.032-3.176,7.824
	C114.336,248.928,112.68,249.44,111.024,249.44z M82,218.184c1.28,0,2.552,0.304,3.72,0.92l14.68,7.712l-2.808-16.344
	c-0.448-2.592,0.416-5.24,2.296-7.08l11.864-11.568l-16.4-2.384c-2.608-0.376-4.856-2.016-6.024-4.376L81.992,170.2l-7.336,14.864
	c-1.168,2.36-3.416,4-6.024,4.376l-16.4,2.384l11.864,11.568c1.88,1.832,2.744,4.488,2.296,7.08L63.6,226.816l14.68-7.712
	C79.448,218.488,80.72,218.184,82,218.184z"/>
<polygon style="fill:#FEDCA4;" points="194,8.12 208.512,37.528 240.952,42.24 217.48,65.128 223.024,97.44 194,82.184 
	164.976,97.44 170.52,65.128 147.048,42.24 179.488,37.528 "/>
<path style="fill:#4D4D4D;" d="M223.024,105.44c-1.272,0-2.552-0.304-3.72-0.92L194,91.224l-25.304,13.296
	c-2.672,1.432-5.96,1.184-8.424-0.608c-2.464-1.792-3.696-4.824-3.176-7.824l4.832-28.176l-20.472-19.944
	c-2.176-2.128-2.96-5.304-2.024-8.192c0.944-2.896,3.448-5.008,6.464-5.448l28.28-4.112l12.648-25.632
	c2.688-5.472,11.656-5.472,14.344,0l12.648,25.632l28.28,4.112c3.016,0.44,5.512,2.544,6.464,5.448
	c0.936,2.888,0.16,6.072-2.024,8.192l-20.472,19.944l4.832,28.176c0.512,3-0.72,6.032-3.176,7.824
	C226.336,104.928,224.68,105.44,223.024,105.44z M194,74.184c1.28,0,2.552,0.304,3.72,0.92l14.68,7.712l-2.808-16.344
	c-0.448-2.592,0.416-5.24,2.296-7.08l11.864-11.568L207.36,45.44c-2.608-0.376-4.856-2.016-6.024-4.376L194,26.2l-7.336,14.864
	c-1.168,2.36-3.416,4-6.024,4.376l-16.4,2.384l11.864,11.568c1.88,1.832,2.744,4.488,2.296,7.08l-2.808,16.344l14.68-7.712
	C191.448,74.488,192.72,74.184,194,74.184z"/>
<g>
</g>
<g>
</g>
<g>
</g>
<g>
</g>
<g>
</g>
<g>
</g>
<g>
</g>
<g>
</g>
<g>
</g>
<g>
</g>
<g>
</g>
<g>
</g>
<g>
</g>
<g>
</g>
<g>
</g>
</svg>
