<?xml version="1.0" encoding="iso-8859-1"?>
<!-- Generator: Adobe Illustrator 19.0.0, SVG Export Plug-In . SVG Version: 6.00 Build 0)  -->
<svg version="1.1" id="Layer_1" xmlns="http://www.w3.org/2000/svg" xmlns:xlink="http://www.w3.org/1999/xlink" x="0px" y="0px"
	 viewBox="0 0 480.016 480.016" style="enable-background:new 0 0 480.016 480.016;" xml:space="preserve">
<circle style="fill:#FEDCA4;" cx="364.008" cy="116" r="108"/>
<path style="fill:#4D4D4D;" d="M364.008,232c-63.96,0-116-52.04-116-116s52.04-116,116-116s116,52.04,116,116
	S427.968,232,364.008,232z M364.008,16c-55.144,0-100,44.856-100,100s44.856,100,100,100s100-44.856,100-100S419.152,16,364.008,16z
	"/>
<path style="fill:#92C7D3;" d="M420.008,368c-1.08,0-41.224,0-41.224,0c0.72-8,1.2-13.632,1.208-18.256
	c0.12-41.248-27.408-79.904-67.696-88.784c-22.96-5.056-44.88-2.624-63.016,7.16c-22.12-32.928-58.784-55.792-100.792-58.36
	c-5.408-0.744-10.88-1.512-16.488-1.512C63.528,208.248,8.008,265.376,8.008,336c0,36.8,15.16,69.816,39.288,93.144
	c21.336,23.672,50.96,38.928,86.04,41.472c0,0,285.584,1.4,286.672,1.4c28.72,0,52-21.08,52-52.008S448.728,368,420.008,368z"/>
<path style="fill:#4D4D4D;" d="M420.008,480.016c-1.096,0-275.048-1.344-286.712-1.4c-36.696-2.648-68.304-17.888-91.944-44.112
	C14.832,408.864,0.008,373.752,0.008,336c0-74.848,59.216-135.752,132-135.752c6.056,0,11.768,0.784,17.288,1.544
	c40.104,2.448,78.064,23.304,102.592,56.168c18.448-8.072,39.76-9.744,62.128-4.816c43.008,9.48,74.12,50.112,73.976,96.616
	c-0.008,2.976-0.176,6.208-0.496,10.232h32.512c34.2,0,60,25.8,60,60.008S454.208,480.016,420.008,480.016z M133.952,464
	c3.608,0,284.08,0.688,286.064,0.696c25.488,0,43.992-18.848,43.992-44.344S445.504,376,420.008,376h-49.976l0.784-8.72
	c0.728-8.112,1.168-13.336,1.176-17.552c0.12-39.048-25.712-73.088-61.416-80.952c-21.2-4.672-41.088-2.472-57.496,6.392
	l-6.392,3.456l-4.048-6.032c-21.512-32.032-56.896-52.528-94.648-54.84l-0.872-0.096c-5.224-0.72-10.16-1.4-15.12-1.4
	C68.048,216.248,16.008,269.968,16.008,336c0,33.376,13.088,65.096,36.848,88.08c21.2,23.488,49.104,39.92,81.056,39.92
	C133.912,464,133.928,464,133.952,464z"/>
<polygon style="fill:#FEDCA4;" points="82.008,152.6 96.52,182.008 128.96,186.72 105.488,209.608 111.032,241.92 82.008,226.664 
	52.984,241.92 58.528,209.608 35.056,186.72 67.496,182.008 "/>
<path style="fill:#4D4D4D;" d="M111.032,249.92c-1.272,0-2.552-0.304-3.72-0.92l-25.304-13.296L56.704,249
	c-2.672,1.424-5.96,1.184-8.424-0.608c-2.464-1.792-3.696-4.824-3.176-7.824l4.832-28.176l-20.472-19.944
	c-2.176-2.128-2.96-5.304-2.024-8.192c0.944-2.896,3.448-5.008,6.464-5.448l28.28-4.112l12.648-25.632
	c2.688-5.472,11.656-5.472,14.344,0l12.648,25.632l28.28,4.112c3.016,0.44,5.512,2.544,6.464,5.448
	c0.936,2.888,0.16,6.072-2.024,8.192l-20.472,19.944l4.832,28.176c0.512,3-0.72,6.032-3.176,7.824
	C114.344,249.408,112.688,249.92,111.032,249.92z M82.008,218.664c1.28,0,2.552,0.304,3.72,0.92l14.68,7.712L97.6,210.952
	c-0.448-2.592,0.416-5.24,2.296-7.08l11.864-11.568l-16.4-2.384c-2.608-0.376-4.856-2.016-6.024-4.376L82,170.68l-7.336,14.864
	c-1.168,2.36-3.416,4-6.024,4.376l-16.4,2.384l11.864,11.568c1.88,1.832,2.744,4.488,2.296,7.08l-2.792,16.344l14.68-7.712
	C79.456,218.968,80.728,218.664,82.008,218.664z"/>
<polygon style="fill:#FEDCA4;" points="194.008,8.6 208.52,38.008 240.96,42.72 217.488,65.608 223.032,97.92 194.008,82.664 
	164.984,97.92 170.528,65.608 147.056,42.72 179.496,38.008 "/>
<path style="fill:#4D4D4D;" d="M223.032,105.92c-1.272,0-2.552-0.304-3.72-0.92l-25.304-13.296L168.704,105
	c-2.672,1.432-5.96,1.184-8.424-0.608c-2.464-1.792-3.696-4.824-3.176-7.824l4.832-28.176l-20.472-19.944
	c-2.176-2.128-2.96-5.304-2.024-8.192c0.944-2.896,3.448-5.008,6.464-5.448l28.28-4.112l12.648-25.632
	c2.688-5.472,11.656-5.472,14.344,0l12.648,25.632l28.28,4.112c3.016,0.44,5.512,2.544,6.464,5.448
	c0.936,2.888,0.16,6.072-2.024,8.192l-20.472,19.944l4.832,28.176c0.512,3-0.72,6.032-3.176,7.824
	C226.344,105.408,224.688,105.92,223.032,105.92z M194.008,74.664c1.28,0,2.552,0.304,3.72,0.92l14.68,7.712L209.6,66.952
	c-0.448-2.592,0.416-5.24,2.296-7.08l11.864-11.568l-16.392-2.384c-2.608-0.376-4.856-2.016-6.024-4.376l-7.336-14.864
	l-7.336,14.864c-1.168,2.36-3.416,4-6.024,4.376l-16.4,2.384l11.864,11.568c1.88,1.832,2.744,4.488,2.296,7.08L175.6,83.296
	l14.68-7.712C191.456,74.968,192.728,74.664,194.008,74.664z"/>
<g>
</g>
<g>
</g>
<g>
</g>
<g>
</g>
<g>
</g>
<g>
</g>
<g>
</g>
<g>
</g>
<g>
</g>
<g>
</g>
<g>
</g>
<g>
</g>
<g>
</g>
<g>
</g>
<g>
</g>
</svg>
