<?xml version="1.0" encoding="iso-8859-1"?>
<!-- Generator: Adobe Illustrator 19.0.0, SVG Export Plug-In . SVG Version: 6.00 Build 0)  -->
<svg version="1.1" id="Layer_1" xmlns="http://www.w3.org/2000/svg" xmlns:xlink="http://www.w3.org/1999/xlink" x="0px" y="0px"
	 viewBox="0 0 480.664 480.664" style="enable-background:new 0 0 480.664 480.664;" xml:space="preserve">
<circle style="fill:#FCB641;" cx="349.332" cy="129" r="120.96"/>
<path style="fill:#4D4D4D;" d="M349.332,258c-71.136,0-129-57.864-129-129s57.864-129,129-129s129,57.864,129,129
	S420.468,258,349.332,258z M349.332,16c-62.304,0-113,50.688-113,113s50.696,113,113,113s113-50.696,113-113S411.636,16,349.332,16z
	"/>
<circle style="fill:#E4F1F4;" cx="80.332" cy="400.664" r="24"/>
<path style="fill:#4D4D4D;" d="M80.332,432.664c-17.648,0-32-14.352-32-32s14.352-32,32-32s32,14.352,32,32
	S97.98,432.664,80.332,432.664z M80.332,384.664c-8.824,0-16,7.176-16,16s7.176,16,16,16s16-7.176,16-16
	S89.156,384.664,80.332,384.664z"/>
<circle style="fill:#E4F1F4;" cx="241.292" cy="448.664" r="24"/>
<path style="fill:#4D4D4D;" d="M241.332,480.664c-17.648,0-32-14.352-32-32s14.352-32,32-32s32,14.352,32,32
	S258.98,480.664,241.332,480.664z M241.332,432.664c-8.824,0-16,7.176-16,16s7.176,16,16,16s16-7.176,16-16
	S250.156,432.664,241.332,432.664z"/>
<circle style="fill:#E4F1F4;" cx="385.292" cy="400.664" r="24"/>
<path style="fill:#4D4D4D;" d="M385.332,432.664c-17.648,0-32-14.352-32-32s14.352-32,32-32s32,14.352,32,32
	S402.98,432.664,385.332,432.664z M385.332,384.664c-8.824,0-16,7.176-16,16s7.176,16,16,16s16-7.176,16-16
	S394.156,384.664,385.332,384.664z"/>
<path style="fill:#92C7D3;" d="M420.332,228.664c-1.08,0-41.224,0-41.224,0c0.72-7.888,1.2-9.632,1.208-14.256
	c0.12-41.248-27.408-77.904-67.696-86.784c-22.96-5.056-44.88-1.624-63.016,8.16c-22.12-32.928-58.784-55.296-100.792-57.864
	c-5.4-0.736-10.872-1.256-16.48-1.256c-68.48,0-124,57.248-124,127.872c0,36.8,15.16,69.88,39.288,93.208
	c21.336,23.672,50.96,38.96,86.04,41.504c0,0,285.584,1.416,286.672,1.416c28.72,0,52-25.072,52-56S449.052,228.664,420.332,228.664
	z"/>
<path style="fill:#4D4D4D;" d="M420.332,348.664c-1.096,0-275.048-1.352-286.712-1.416c-36.68-2.648-68.288-17.904-91.944-44.152
	c-26.52-25.624-41.344-60.768-41.344-98.56c0-74.92,59.216-135.872,132-135.872c5.368,0,10.952,0.424,17.568,1.336
	c40.008,2.424,77.936,23.08,102.288,55.608c19.12-8.56,40.456-10.576,62.152-5.792c43,9.48,74.12,49.272,73.976,94.624
	c-0.008,2.44-0.128,4.16-0.336,6.232h32.352c33.088,0,60,28.712,60,64S453.42,348.664,420.332,348.664z M134.276,332.664
	c3.576,0,284.072,0.696,286.064,0.696c24.248,0,43.992-21.88,43.992-48.352s-19.744-48.344-44-48.344H370.34l0.8-8.728
	c0.264-2.92,0.496-5.016,0.696-6.736c0.288-2.616,0.48-4.192,0.488-6.808c0.12-37.888-25.712-71.096-61.416-78.96
	c-20.36-4.488-40.224-1.928-57.496,7.384l-6.392,3.448l-4.048-6.024c-21.616-32.176-56.12-51.984-94.648-54.336
	c-6.48-0.864-11.368-1.24-15.992-1.24c-63.96,0-116,53.776-116,119.872c0,33.416,13.088,65.168,36.848,88.152
	c21.224,23.52,49.112,39.976,81.056,39.976C134.236,332.664,134.252,332.664,134.276,332.664z"/>
<g>
</g>
<g>
</g>
<g>
</g>
<g>
</g>
<g>
</g>
<g>
</g>
<g>
</g>
<g>
</g>
<g>
</g>
<g>
</g>
<g>
</g>
<g>
</g>
<g>
</g>
<g>
</g>
<g>
</g>
</svg>
