<?xml version="1.0" encoding="iso-8859-1"?>
<!-- Generator: Adobe Illustrator 19.0.0, SVG Export Plug-In . SVG Version: 6.00 Build 0)  -->
<svg version="1.1" id="Layer_1" xmlns="http://www.w3.org/2000/svg" xmlns:xlink="http://www.w3.org/1999/xlink" x="0px" y="0px"
	 viewBox="0 0 480 480" style="enable-background:new 0 0 480 480;" xml:space="preserve">
<path style="fill:#FCB641;" d="M375.08,354.584c0-72.392-58.688-133.08-131.08-133.08s-131.08,61.688-131.08,134.08
	c0,5.92,0.528,12.416,1.288,20.416h259.584C374.552,368,375.08,360.504,375.08,354.584z"/>
<g>
	<path style="fill:#4D4D4D;" d="M240,144c-4.424,0-8-3.584-8-8V88c0-4.416,3.576-8,8-8c4.424,0,8,3.584,8,8v48
		C248,140.416,244.424,144,240,144z"/>
	<path style="fill:#4D4D4D;" d="M240,192c-4.424,0-8-3.584-8-8v-16c0-4.416,3.576-8,8-8c4.424,0,8,3.584,8,8v16
		C248,188.416,244.424,192,240,192z"/>
	<path style="fill:#4D4D4D;" d="M394.344,205.656c-2.048,0-4.096-0.784-5.656-2.344c-3.128-3.128-3.128-8.192,0-11.312
		l29.256-29.256c3.128-3.128,8.184-3.128,11.312,0s3.128,8.192,0,11.312L400,203.312
		C398.44,204.872,396.392,205.656,394.344,205.656z"/>
	<path style="fill:#4D4D4D;" d="M360.4,239.6c-2.048,0-4.096-0.784-5.656-2.344c-3.128-3.128-3.128-8.192,0-11.32l11.32-11.312
		c3.128-3.12,8.184-3.12,11.312,0s3.128,8.192,0,11.32l-11.32,11.312C364.496,238.816,362.448,239.6,360.4,239.6z"/>
	<path style="fill:#4D4D4D;" d="M472,328h-24c-4.424,0-8-3.584-8-8s3.576-8,8-8h24c4.424,0,8,3.584,8,8S476.424,328,472,328z"/>
	<path style="fill:#4D4D4D;" d="M416,328h-16c-4.424,0-8-3.584-8-8s3.576-8,8-8h16c4.424,0,8,3.584,8,8S420.424,328,416,328z"/>
	<path style="fill:#4D4D4D;" d="M40,328H16c-4.424,0-8-3.584-8-8s3.576-8,8-8h24c4.424,0,8,3.584,8,8S44.424,328,40,328z"/>
	<path style="fill:#4D4D4D;" d="M88,328H72c-4.424,0-8-3.584-8-8s3.576-8,8-8h16c4.424,0,8,3.584,8,8S92.424,328,88,328z"/>
	<path style="fill:#4D4D4D;" d="M101.656,205.656c-2.048,0-4.096-0.784-5.656-2.344l-29.256-29.256
		c-3.128-3.12-3.128-8.184,0-11.312c3.128-3.128,8.184-3.128,11.312,0L107.312,192c3.128,3.12,3.128,8.184,0,11.312
		C105.752,204.872,103.704,205.656,101.656,205.656z"/>
	<path style="fill:#4D4D4D;" d="M135.6,239.6c-2.048,0-4.096-0.784-5.656-2.336l-11.32-11.312c-3.128-3.128-3.128-8.192,0-11.32
		s8.184-3.12,11.312,0l11.32,11.312c3.128,3.128,3.128,8.192,0,11.32C139.696,238.816,137.648,239.6,135.6,239.6z"/>
</g>
<g>
	<path style="fill:#4D4D4D;" d="M472,368h-89.512c0.384-5.24,0.592-9.728,0.592-13.416c0-77.792-62.392-141.08-139.08-141.08
		c-75.392,0-139.08,65.064-139.08,142.08c0,3.816,0.216,7.872,0.568,12.416H8c-4.424,0-8,3.584-8,8s3.576,8,8,8h106.208h259.576H472
		c4.424,0,8-3.584,8-8S476.424,368,472,368z M121.52,368c-0.384-4.712-0.6-8.712-0.6-12.416c0-68.344,56.36-126.08,123.08-126.08
		c67.864,0,123.08,56.112,123.08,125.08c0,3.592-0.2,8.016-0.624,13.416H121.52z"/>
	<path style="fill:#4D4D4D;" d="M424,432H216c-4.424,0-8-3.584-8-8s3.576-8,8-8h208c4.424,0,8,3.584,8,8S428.424,432,424,432z"/>
	<path style="fill:#4D4D4D;" d="M168,432H88c-4.424,0-8-3.584-8-8s3.576-8,8-8h80c4.424,0,8,3.584,8,8S172.424,432,168,432z"/>
	<path style="fill:#4D4D4D;" d="M376,480h-56c-4.424,0-8-3.584-8-8s3.576-8,8-8h56c4.424,0,8,3.584,8,8S380.424,480,376,480z"/>
	<path style="fill:#4D4D4D;" d="M272,480H136c-4.424,0-8-3.584-8-8s3.576-8,8-8h136c4.424,0,8,3.584,8,8S276.424,480,272,480z"/>
</g>
<path style="fill:#FEE8C2;" d="M375.192,40c-4.152-20.432-23.872-35.216-46.24-31.4c-15.768,2.688-28.784,15.12-32.048,30.784
	C291.504,65.24,311.096,88,336,88h64c13.256,0,24-10.744,24-24l0,0c0-13.256-10.744-24-24-24H375.192z"/>
<path style="fill:#4D4D4D;" d="M400,96h-64c-14.512,0-28.096-6.464-37.256-17.736c-9.168-11.272-12.696-26.032-9.672-40.504
	c3.936-18.888,19.424-33.776,38.536-37.04c23.608-4.064,46.016,9.432,53.664,31.28H400c17.648,0,32,14.352,32,32S417.648,96,400,96z
	 M335.912,16.008c-1.848,0-3.728,0.16-5.616,0.48c-12.488,2.128-23,12.216-25.568,24.528c-2.056,9.88,0.224,19.52,6.432,27.152
	C317.264,75.688,326.32,80,336,80h64c8.824,0,16-7.176,16-16s-7.176-16-16-16h-31.344l-1.304-6.408
	C364.272,26.416,351.016,16.008,335.912,16.008z"/>
<path style="fill:#FEE8C2;" d="M87.192,88C83.04,67.568,63.32,52.784,40.952,56.6C25.184,59.288,12.168,71.72,8.904,87.384
	C3.504,113.24,23.096,136,48,136h64c13.256,0,24-10.744,24-24l0,0c0-13.256-10.744-24-24-24H87.192z"/>
<path style="fill:#4D4D4D;" d="M112,144H48c-14.512,0-28.096-6.464-37.256-17.736C1.576,114.992-1.952,100.232,1.072,85.76
	c3.936-18.888,19.424-33.776,38.536-37.04c23.6-4.056,46.016,9.432,53.664,31.288H112c17.648,0,32,14.352,32,32S129.648,144,112,144
	z M47.912,64.008c-1.848,0-3.728,0.16-5.616,0.48c-12.488,2.128-23,12.216-25.568,24.528c-2.056,9.88,0.224,19.52,6.432,27.152
	C29.264,123.688,38.32,128,48,128h64c8.824,0,16-7.176,16-16s-7.176-16-16-16H80.656l-1.304-6.408
	C76.272,74.416,63.016,64.008,47.912,64.008z"/>
<g>
</g>
<g>
</g>
<g>
</g>
<g>
</g>
<g>
</g>
<g>
</g>
<g>
</g>
<g>
</g>
<g>
</g>
<g>
</g>
<g>
</g>
<g>
</g>
<g>
</g>
<g>
</g>
<g>
</g>
</svg>
